<svg xmlns="http://www.w3.org/2000/svg" xmlns:xlink="http://www.w3.org/1999/xlink" width="40" zoomAndPan="magnify" viewBox="0 0 30 30.000001" height="40" preserveAspectRatio="xMidYMid meet" version="1.0"><defs><clipPath id="08f67cc99d"><path d="M 17 0.253906 L 25.886719 0.253906 L 25.886719 29.03125 L 17 29.03125 Z M 17 0.253906 " clip-rule="nonzero"/></clipPath><clipPath id="17a9d46939"><path d="M 3.386719 0.253906 L 13 0.253906 L 13 29.03125 L 3.386719 29.03125 Z M 3.386719 0.253906 " clip-rule="nonzero"/></clipPath></defs><g clip-path="url(#08f67cc99d)"><path fill="#000000" d="M 17.851562 3.480469 L 17.046875 3.480469 L 17.046875 0.253906 L 17.851562 0.253906 C 20.511719 0.253906 22.667969 2.421875 22.667969 5.09375 L 22.667969 10.738281 C 22.667969 11.246094 22.90625 11.726562 23.3125 12.03125 L 25.238281 13.480469 C 25.625 13.769531 25.859375 14.21875 25.882812 14.703125 C 25.902344 15.1875 25.703125 15.65625 25.34375 15.976562 L 23.207031 17.882812 C 22.867188 18.1875 22.667969 18.625 22.667969 19.085938 L 22.667969 24.449219 C 22.667969 27.121094 20.511719 29.289062 17.851562 29.289062 L 17.046875 29.289062 L 17.046875 26.0625 L 17.851562 26.0625 C 18.738281 26.0625 19.457031 25.339844 19.457031 24.449219 L 19.457031 19.085938 C 19.457031 17.703125 20.046875 16.386719 21.074219 15.46875 L 21.738281 14.878906 L 21.382812 14.609375 C 20.171875 13.695312 19.457031 12.261719 19.457031 10.738281 L 19.457031 5.09375 C 19.457031 4.203125 18.738281 3.480469 17.851562 3.480469 Z M 17.851562 3.480469 " fill-opacity="1" fill-rule="evenodd"/></g><g clip-path="url(#17a9d46939)"><path fill="#000000" d="M 11.425781 3.480469 L 12.226562 3.480469 L 12.226562 0.253906 L 11.425781 0.253906 C 8.761719 0.253906 6.605469 2.421875 6.605469 5.09375 L 6.605469 10.738281 C 6.605469 11.246094 6.367188 11.726562 5.960938 12.03125 L 4.035156 13.480469 C 3.648438 13.769531 3.414062 14.21875 3.394531 14.703125 C 3.371094 15.1875 3.570312 15.65625 3.929688 15.976562 L 6.066406 17.882812 C 6.410156 18.1875 6.605469 18.625 6.605469 19.085938 L 6.605469 24.449219 C 6.605469 27.121094 8.761719 29.289062 11.425781 29.289062 L 12.226562 29.289062 L 12.226562 26.0625 L 11.425781 26.0625 C 10.535156 26.0625 9.816406 25.339844 9.816406 24.449219 L 9.816406 19.085938 C 9.816406 17.703125 9.230469 16.386719 8.199219 15.46875 L 7.535156 14.878906 L 7.890625 14.609375 C 9.101562 13.695312 9.816406 12.261719 9.816406 10.738281 L 9.816406 5.09375 C 9.816406 4.203125 10.535156 3.480469 11.425781 3.480469 Z M 11.425781 3.480469 " fill-opacity="1" fill-rule="evenodd"/></g></svg>