<svg xmlns="http://www.w3.org/2000/svg" xmlns:xlink="http://www.w3.org/1999/xlink" width="40" zoomAndPan="magnify" viewBox="0 0 30 30.000001" height="40" preserveAspectRatio="xMidYMid meet" version="1.0"><defs><clipPath id="42bd257168"><path d="M 1.367188 2 L 29.515625 2 L 29.515625 24 L 1.367188 24 Z M 1.367188 2 " clip-rule="nonzero"/></clipPath><clipPath id="7400048c4b"><path d="M 6 25 L 25 25 L 25 28.277344 L 6 28.277344 Z M 6 25 " clip-rule="nonzero"/></clipPath><clipPath id="a56f627d69"><path d="M 1.367188 19 L 29.515625 19 L 29.515625 24 L 1.367188 24 Z M 1.367188 19 " clip-rule="nonzero"/></clipPath><clipPath id="3c73152abb"><path d="M 21 0.699219 L 29.515625 0.699219 L 29.515625 9 L 21 9 Z M 21 0.699219 " clip-rule="nonzero"/></clipPath></defs><g clip-path="url(#42bd257168)"><path fill="#231f20" d="M 27.84375 23.328125 L 2.894531 23.328125 C 2.699219 23.328125 2.507812 23.289062 2.324219 23.214844 C 2.140625 23.136719 1.976562 23.03125 1.835938 22.890625 C 1.695312 22.753906 1.589844 22.589844 1.511719 22.410156 C 1.4375 22.226562 1.398438 22.039062 1.398438 21.839844 L 1.398438 4.015625 C 1.398438 3.816406 1.4375 3.628906 1.511719 3.445312 C 1.589844 3.265625 1.695312 3.105469 1.835938 2.964844 C 1.976562 2.824219 2.140625 2.71875 2.324219 2.640625 C 2.507812 2.566406 2.699219 2.53125 2.894531 2.53125 L 19.363281 2.53125 C 19.5 2.53125 19.617188 2.578125 19.714844 2.675781 C 19.8125 2.769531 19.859375 2.886719 19.859375 3.023438 C 19.859375 3.160156 19.8125 3.277344 19.714844 3.375 C 19.617188 3.472656 19.5 3.519531 19.363281 3.519531 L 2.894531 3.519531 C 2.757812 3.519531 2.640625 3.566406 2.542969 3.664062 C 2.445312 3.761719 2.398438 3.878906 2.398438 4.015625 L 2.398438 21.839844 C 2.398438 21.976562 2.445312 22.09375 2.542969 22.191406 C 2.640625 22.289062 2.757812 22.335938 2.894531 22.335938 L 27.84375 22.335938 C 27.984375 22.335938 28.101562 22.289062 28.199219 22.191406 C 28.296875 22.09375 28.34375 21.976562 28.34375 21.839844 L 28.34375 9.460938 C 28.34375 9.324219 28.390625 9.207031 28.488281 9.113281 C 28.585938 9.015625 28.703125 8.964844 28.84375 8.964844 C 28.980469 8.964844 29.097656 9.015625 29.195312 9.113281 C 29.292969 9.207031 29.339844 9.324219 29.339844 9.460938 L 29.339844 21.839844 C 29.339844 22.039062 29.304688 22.226562 29.226562 22.410156 C 29.152344 22.589844 29.042969 22.753906 28.902344 22.890625 C 28.761719 23.03125 28.601562 23.136719 28.417969 23.214844 C 28.234375 23.289062 28.042969 23.328125 27.84375 23.328125 Z M 27.84375 23.328125 " fill-opacity="1" fill-rule="nonzero"/></g><g clip-path="url(#7400048c4b)"><path fill="#231f20" d="M 22.855469 28.277344 L 7.886719 28.277344 C 7.6875 28.277344 7.496094 28.242188 7.3125 28.164062 C 7.128906 28.089844 6.96875 27.980469 6.828125 27.84375 C 6.6875 27.703125 6.578125 27.542969 6.503906 27.359375 C 6.425781 27.179688 6.386719 26.988281 6.386719 26.792969 C 6.386719 26.59375 6.425781 26.40625 6.503906 26.222656 C 6.578125 26.042969 6.6875 25.882812 6.828125 25.742188 C 6.96875 25.601562 7.128906 25.496094 7.3125 25.421875 C 7.496094 25.34375 7.6875 25.308594 7.886719 25.308594 L 22.855469 25.308594 C 23.054688 25.308594 23.246094 25.34375 23.429688 25.421875 C 23.609375 25.496094 23.773438 25.601562 23.914062 25.742188 C 24.054688 25.882812 24.160156 26.042969 24.238281 26.222656 C 24.3125 26.40625 24.351562 26.59375 24.351562 26.792969 C 24.351562 26.988281 24.3125 27.179688 24.238281 27.359375 C 24.160156 27.542969 24.054688 27.703125 23.914062 27.84375 C 23.773438 27.980469 23.609375 28.089844 23.429688 28.164062 C 23.246094 28.242188 23.054688 28.277344 22.855469 28.277344 Z M 7.886719 26.296875 C 7.746094 26.296875 7.628906 26.34375 7.53125 26.441406 C 7.433594 26.539062 7.386719 26.65625 7.386719 26.792969 C 7.386719 26.929688 7.433594 27.046875 7.53125 27.144531 C 7.628906 27.238281 7.746094 27.289062 7.886719 27.289062 L 22.855469 27.289062 C 22.992188 27.289062 23.109375 27.238281 23.207031 27.144531 C 23.304688 27.046875 23.355469 26.929688 23.355469 26.792969 C 23.355469 26.65625 23.304688 26.539062 23.207031 26.441406 C 23.109375 26.34375 22.992188 26.296875 22.855469 26.296875 Z M 7.886719 26.296875 " fill-opacity="1" fill-rule="nonzero"/></g><g clip-path="url(#a56f627d69)"><path fill="#231f20" d="M 27.84375 23.328125 L 2.894531 23.328125 C 2.699219 23.328125 2.507812 23.289062 2.324219 23.214844 C 2.140625 23.136719 1.976562 23.03125 1.835938 22.890625 C 1.695312 22.753906 1.589844 22.589844 1.511719 22.410156 C 1.4375 22.226562 1.398438 22.039062 1.398438 21.839844 L 1.398438 19.363281 L 29.339844 19.363281 L 29.339844 21.839844 C 29.339844 22.039062 29.304688 22.226562 29.226562 22.410156 C 29.152344 22.589844 29.042969 22.753906 28.902344 22.890625 C 28.761719 23.03125 28.601562 23.136719 28.417969 23.214844 C 28.234375 23.289062 28.042969 23.328125 27.84375 23.328125 Z M 2.398438 20.355469 L 2.398438 21.839844 C 2.398438 21.976562 2.445312 22.09375 2.542969 22.191406 C 2.640625 22.289062 2.757812 22.335938 2.894531 22.335938 L 27.84375 22.335938 C 27.984375 22.335938 28.101562 22.289062 28.199219 22.191406 C 28.296875 22.09375 28.34375 21.976562 28.34375 21.839844 L 28.34375 20.355469 Z M 2.398438 20.355469 " fill-opacity="1" fill-rule="nonzero"/></g><path fill="#231f20" d="M 20.117188 26.296875 L 10.746094 26.296875 L 12.078125 22.335938 L 18.785156 22.335938 Z M 12.132812 25.308594 L 18.726562 25.308594 L 18.066406 23.328125 L 12.796875 23.328125 Z M 12.132812 25.308594 " fill-opacity="1" fill-rule="nonzero"/><path fill="#231f20" d="M 11.878906 10.945312 L 4.890625 10.945312 C 4.753906 10.945312 4.636719 10.898438 4.539062 10.800781 C 4.441406 10.707031 4.394531 10.589844 4.394531 10.453125 C 4.394531 10.316406 4.441406 10.199219 4.539062 10.101562 C 4.636719 10.003906 4.753906 9.957031 4.890625 9.957031 L 11.878906 9.957031 C 12.015625 9.957031 12.132812 10.003906 12.230469 10.101562 C 12.328125 10.199219 12.375 10.316406 12.375 10.453125 C 12.375 10.589844 12.328125 10.707031 12.230469 10.800781 C 12.132812 10.898438 12.015625 10.945312 11.878906 10.945312 Z M 11.878906 10.945312 " fill-opacity="1" fill-rule="nonzero"/><path fill="#231f20" d="M 9.882812 14.414062 L 4.890625 14.414062 C 4.753906 14.414062 4.636719 14.363281 4.539062 14.269531 C 4.441406 14.171875 4.394531 14.054688 4.394531 13.917969 C 4.394531 13.78125 4.441406 13.664062 4.539062 13.566406 C 4.636719 13.472656 4.753906 13.421875 4.890625 13.421875 L 9.882812 13.421875 C 10.019531 13.421875 10.136719 13.472656 10.234375 13.566406 C 10.332031 13.664062 10.378906 13.78125 10.378906 13.917969 C 10.378906 14.054688 10.332031 14.171875 10.234375 14.269531 C 10.136719 14.363281 10.019531 14.414062 9.882812 14.414062 Z M 9.882812 14.414062 " fill-opacity="1" fill-rule="nonzero"/><path fill="#231f20" d="M 7.886719 17.878906 L 4.890625 17.878906 C 4.753906 17.878906 4.636719 17.832031 4.539062 17.734375 C 4.441406 17.636719 4.394531 17.519531 4.394531 17.382812 C 4.394531 17.246094 4.441406 17.132812 4.539062 17.035156 C 4.636719 16.9375 4.753906 16.890625 4.890625 16.890625 L 7.886719 16.890625 C 8.023438 16.890625 8.140625 16.9375 8.238281 17.035156 C 8.335938 17.132812 8.382812 17.246094 8.382812 17.382812 C 8.382812 17.519531 8.335938 17.636719 8.238281 17.734375 C 8.140625 17.832031 8.023438 17.878906 7.886719 17.878906 Z M 7.886719 17.878906 " fill-opacity="1" fill-rule="nonzero"/><path fill="#231f20" d="M 20.253906 15.402344 C 20.117188 15.402344 20 15.355469 19.902344 15.253906 L 14.964844 10.351562 C 14.871094 10.257812 14.820312 10.140625 14.820312 10.003906 C 14.820312 9.867188 14.871094 9.75 14.964844 9.65625 L 22.023438 2.648438 C 22.117188 2.550781 22.234375 2.503906 22.375 2.503906 C 22.511719 2.503906 22.628906 2.550781 22.726562 2.648438 L 27.664062 7.550781 C 27.761719 7.648438 27.808594 7.761719 27.808594 7.898438 C 27.808594 8.035156 27.761719 8.152344 27.664062 8.25 L 20.609375 15.25 C 20.511719 15.351562 20.394531 15.402344 20.253906 15.402344 Z M 16.023438 10.007812 L 20.253906 14.207031 L 26.605469 7.902344 L 22.355469 3.699219 Z M 16.023438 10.007812 " fill-opacity="1" fill-rule="nonzero"/><path fill="#231f20" d="M 12.761719 17.933594 C 12.625 17.933594 12.507812 17.882812 12.410156 17.785156 C 12.273438 17.644531 12.230469 17.480469 12.292969 17.289062 L 14.847656 9.863281 C 14.875 9.78125 14.917969 9.714844 14.984375 9.65625 C 15.046875 9.597656 15.121094 9.558594 15.203125 9.539062 C 15.289062 9.519531 15.371094 9.523438 15.453125 9.546875 C 15.535156 9.566406 15.609375 9.609375 15.667969 9.667969 L 20.609375 14.570312 C 20.738281 14.699219 20.785156 14.855469 20.746094 15.03125 C 20.703125 15.210938 20.59375 15.328125 20.421875 15.390625 L 12.933594 17.925781 C 12.878906 17.9375 12.820312 17.941406 12.761719 17.933594 Z M 15.53125 10.914062 L 13.5625 16.640625 L 19.363281 14.691406 Z M 15.53125 10.914062 " fill-opacity="1" fill-rule="nonzero"/><path fill="#231f20" d="M 12.761719 17.933594 C 12.625 17.933594 12.507812 17.882812 12.410156 17.785156 C 12.273438 17.644531 12.230469 17.480469 12.292969 17.289062 L 13.398438 14.050781 C 13.4375 13.941406 13.507812 13.851562 13.609375 13.789062 C 13.710938 13.726562 13.820312 13.703125 13.9375 13.71875 C 14.613281 13.804688 15.191406 14.085938 15.667969 14.566406 C 16.148438 15.042969 16.433594 15.617188 16.523438 16.285156 C 16.539062 16.402344 16.515625 16.511719 16.453125 16.613281 C 16.390625 16.710938 16.300781 16.78125 16.1875 16.820312 L 12.925781 17.90625 C 12.871094 17.921875 12.816406 17.933594 12.761719 17.933594 Z M 14.203125 14.78125 L 13.5625 16.640625 L 15.441406 16.007812 C 15.230469 15.398438 14.816406 14.988281 14.203125 14.78125 Z M 14.203125 14.78125 " fill-opacity="1" fill-rule="nonzero"/><g clip-path="url(#3c73152abb)"><path fill="#231f20" d="M 27.3125 8.601562 L 21.667969 3.023438 L 23.433594 1.273438 C 23.578125 1.136719 23.738281 1.035156 23.921875 0.960938 C 24.105469 0.890625 24.292969 0.851562 24.492188 0.851562 C 24.6875 0.851562 24.878906 0.890625 25.0625 0.960938 C 25.242188 1.035156 25.40625 1.136719 25.550781 1.273438 L 29.078125 4.773438 C 29.21875 4.910156 29.324219 5.074219 29.402344 5.253906 C 29.476562 5.4375 29.515625 5.625 29.515625 5.824219 C 29.515625 6.019531 29.476562 6.207031 29.402344 6.390625 C 29.324219 6.570312 29.21875 6.734375 29.078125 6.871094 Z M 23.078125 3.023438 L 27.3125 7.222656 L 28.375 6.175781 C 28.46875 6.078125 28.519531 5.960938 28.519531 5.824219 C 28.519531 5.6875 28.46875 5.570312 28.375 5.476562 L 24.851562 1.945312 C 24.753906 1.847656 24.636719 1.800781 24.5 1.800781 C 24.363281 1.800781 24.246094 1.847656 24.148438 1.945312 Z M 23.078125 3.023438 " fill-opacity="1" fill-rule="nonzero"/></g><path fill="#231f20" d="M 20.253906 15.402344 C 20.117188 15.402344 20 15.355469 19.902344 15.253906 L 18.492188 13.859375 C 18.394531 13.761719 18.347656 13.644531 18.347656 13.507812 C 18.347656 13.371094 18.394531 13.253906 18.492188 13.15625 L 25.550781 6.148438 C 25.648438 6.054688 25.765625 6.003906 25.902344 6.003906 C 26.039062 6.003906 26.15625 6.054688 26.253906 6.148438 L 27.664062 7.550781 C 27.761719 7.648438 27.808594 7.761719 27.808594 7.898438 C 27.808594 8.035156 27.761719 8.152344 27.664062 8.25 L 20.609375 15.25 C 20.511719 15.351562 20.394531 15.402344 20.253906 15.402344 Z M 19.550781 13.507812 L 20.253906 14.207031 L 26.605469 7.902344 L 25.902344 7.199219 Z M 19.550781 13.507812 " fill-opacity="1" fill-rule="nonzero"/><path fill="#231f20" d="M 16.726562 11.898438 C 16.589844 11.898438 16.46875 11.847656 16.375 11.75 L 14.964844 10.347656 C 14.871094 10.25 14.820312 10.136719 14.820312 10 C 14.820312 9.863281 14.871094 9.746094 14.964844 9.648438 L 22.023438 2.648438 C 22.117188 2.550781 22.234375 2.503906 22.375 2.503906 C 22.511719 2.503906 22.628906 2.550781 22.726562 2.648438 L 24.136719 4.050781 C 24.234375 4.144531 24.28125 4.261719 24.28125 4.394531 C 24.28125 4.535156 24.234375 4.652344 24.136719 4.746094 L 17.082031 11.75 C 16.984375 11.847656 16.867188 11.898438 16.726562 11.898438 Z M 16.023438 10 L 16.726562 10.699219 L 23.078125 4.394531 L 22.355469 3.699219 Z M 16.023438 10 " fill-opacity="1" fill-rule="nonzero"/></svg>