<svg xmlns="http://www.w3.org/2000/svg" xmlns:xlink="http://www.w3.org/1999/xlink" width="40" zoomAndPan="magnify" viewBox="0 0 30 30.000001" height="40" preserveAspectRatio="xMidYMid meet" version="1.0"><defs><clipPath id="126a7d263b"><path d="M 25 13 L 29.515625 13 L 29.515625 16 L 25 16 Z M 25 13 " clip-rule="nonzero"/></clipPath><clipPath id="72d9e05957"><path d="M 0.484375 13 L 5 13 L 5 16 L 0.484375 16 Z M 0.484375 13 " clip-rule="nonzero"/></clipPath><clipPath id="40c709c6e4"><path d="M 11 25 L 19 25 L 19 29.03125 L 11 29.03125 Z M 11 25 " clip-rule="nonzero"/></clipPath></defs><path fill="#0e0e10" d="M 15 4.183594 C 14.5 4.183594 14.09375 3.777344 14.09375 3.273438 L 14.09375 0.90625 C 14.09375 0.40625 14.5 0 15 0 C 15.5 0 15.90625 0.40625 15.90625 0.90625 L 15.90625 3.273438 C 15.90625 3.777344 15.5 4.183594 15 4.183594 Z M 15 4.183594 " fill-opacity="1" fill-rule="nonzero"/><path fill="#0e0e10" d="M 22.949219 7.472656 C 22.714844 7.472656 22.484375 7.386719 22.308594 7.207031 C 21.953125 6.855469 21.953125 6.277344 22.308594 5.925781 L 23.980469 4.25 C 24.335938 3.894531 24.910156 3.894531 25.265625 4.25 C 25.621094 4.605469 25.621094 5.179688 25.265625 5.535156 L 23.589844 7.207031 C 23.414062 7.382812 23.179688 7.472656 22.949219 7.472656 Z M 22.949219 7.472656 " fill-opacity="1" fill-rule="nonzero"/><g clip-path="url(#126a7d263b)"><path fill="#0e0e10" d="M 28.609375 15.421875 L 26.242188 15.421875 C 25.742188 15.421875 25.335938 15.015625 25.335938 14.515625 C 25.335938 14.015625 25.742188 13.609375 26.242188 13.609375 L 28.609375 13.609375 C 29.109375 13.609375 29.515625 14.015625 29.515625 14.515625 C 29.515625 15.015625 29.109375 15.421875 28.609375 15.421875 Z M 28.609375 15.421875 " fill-opacity="1" fill-rule="nonzero"/></g><path fill="#0e0e10" d="M 24.621094 25.046875 C 24.390625 25.046875 24.160156 24.957031 23.980469 24.78125 L 22.308594 23.105469 C 21.953125 22.75 21.953125 22.175781 22.308594 21.824219 C 22.660156 21.46875 23.238281 21.46875 23.589844 21.824219 L 25.265625 23.496094 C 25.621094 23.851562 25.621094 24.425781 25.265625 24.78125 C 25.085938 24.957031 24.855469 25.046875 24.621094 25.046875 Z M 24.621094 25.046875 " fill-opacity="1" fill-rule="nonzero"/><path fill="#0e0e10" d="M 5.378906 25.046875 C 5.144531 25.046875 4.914062 24.957031 4.734375 24.78125 C 4.382812 24.425781 4.382812 23.851562 4.734375 23.496094 L 6.410156 21.824219 C 6.765625 21.46875 7.339844 21.46875 7.695312 21.824219 C 8.046875 22.175781 8.046875 22.75 7.695312 23.105469 L 6.019531 24.78125 C 5.839844 24.957031 5.609375 25.046875 5.378906 25.046875 Z M 5.378906 25.046875 " fill-opacity="1" fill-rule="nonzero"/><g clip-path="url(#72d9e05957)"><path fill="#0e0e10" d="M 3.757812 15.421875 L 1.390625 15.421875 C 0.890625 15.421875 0.484375 15.015625 0.484375 14.515625 C 0.484375 14.015625 0.890625 13.609375 1.390625 13.609375 L 3.757812 13.609375 C 4.257812 13.609375 4.664062 14.015625 4.664062 14.515625 C 4.664062 15.015625 4.257812 15.421875 3.757812 15.421875 Z M 3.757812 15.421875 " fill-opacity="1" fill-rule="nonzero"/></g><path fill="#0e0e10" d="M 7.050781 7.472656 C 6.820312 7.472656 6.585938 7.386719 6.410156 7.207031 L 4.734375 5.535156 C 4.382812 5.179688 4.382812 4.605469 4.734375 4.25 C 5.089844 3.894531 5.664062 3.894531 6.019531 4.25 L 7.695312 5.925781 C 8.046875 6.277344 8.046875 6.855469 7.695312 7.207031 C 7.515625 7.382812 7.285156 7.472656 7.050781 7.472656 Z M 7.050781 7.472656 " fill-opacity="1" fill-rule="nonzero"/><g clip-path="url(#40c709c6e4)"><path fill="#0e0e10" d="M 18.628906 25.402344 L 18.628906 26.914062 C 18.628906 28.078125 17.671875 29.03125 16.511719 29.03125 L 13.488281 29.03125 C 12.472656 29.03125 11.371094 28.257812 11.371094 26.566406 L 11.371094 25.402344 Z M 18.628906 25.402344 " fill-opacity="1" fill-rule="nonzero"/></g><path fill="#0e0e10" d="M 20.335938 7.933594 C 18.351562 6.324219 15.738281 5.695312 13.183594 6.242188 C 9.980469 6.90625 7.378906 9.519531 6.714844 12.726562 C 6.035156 16.015625 7.269531 19.28125 9.90625 21.277344 C 10.621094 21.808594 11.117188 22.632812 11.285156 23.589844 L 11.285156 23.601562 C 11.308594 23.589844 11.347656 23.589844 11.371094 23.589844 L 18.628906 23.589844 C 18.652344 23.589844 18.664062 23.589844 18.6875 23.601562 L 18.6875 23.589844 C 18.859375 22.667969 19.402344 21.820312 20.238281 21.167969 C 22.28125 19.546875 23.46875 17.128906 23.46875 14.515625 C 23.46875 11.949219 22.332031 9.554688 20.335938 7.933594 Z M 19.535156 15.121094 C 19.039062 15.121094 18.628906 14.710938 18.628906 14.214844 C 18.628906 12.375 17.140625 10.886719 15.300781 10.886719 C 14.804688 10.886719 14.394531 10.476562 14.394531 9.980469 C 14.394531 9.484375 14.804688 9.070312 15.300781 9.070312 C 18.132812 9.070312 20.445312 11.382812 20.445312 14.214844 C 20.445312 14.710938 20.03125 15.121094 19.535156 15.121094 Z M 19.535156 15.121094 " fill-opacity="1" fill-rule="nonzero"/><path fill="#0e0e10" d="M 11.285156 23.589844 L 11.371094 23.589844 C 11.347656 23.589844 11.308594 23.589844 11.285156 23.601562 Z M 11.285156 23.589844 " fill-opacity="1" fill-rule="nonzero"/><path fill="#0e0e10" d="M 18.691406 23.589844 L 18.691406 23.601562 C 18.664062 23.589844 18.652344 23.589844 18.628906 23.589844 Z M 18.691406 23.589844 " fill-opacity="1" fill-rule="nonzero"/></svg>